<svg width="72" height="72" viewBox="0 0 72 72" fill="none" xmlns="http://www.w3.org/2000/svg">
<path fill-rule="evenodd" clip-rule="evenodd" d="M36 72C55.8823 72 72 55.8823 72 36C72 16.1177 55.8823 -3.05176e-05 36 -3.05176e-05C16.1177 -3.05176e-05 0 16.1177 0 36C0 55.8823 16.1177 72 36 72ZM54.7061 27.085C55.7303 26.0069 55.6866 24.3025 54.6085 23.2783C53.5303 22.2541 51.826 22.2978 50.8018 23.3759L29.9132 45.3639L21.0945 37.0352C20.0134 36.0141 18.3092 36.0628 17.2881 37.1439C16.2671 38.2251 16.3158 39.9293 17.3969 40.9503L28.1674 51.1225C29.2463 52.1414 30.9462 52.0953 31.9684 51.0194L54.7061 27.085Z" fill="white"/>
</svg>
